<?xml version="1.0" encoding="UTF-8" standalone="no"?>
<svg width="260px" height="260px" viewBox="0 0 260 260" version="1.1" xmlns="http://www.w3.org/2000/svg" xmlns:xlink="http://www.w3.org/1999/xlink">
    <!-- Generator: Sketch 3.8.3 (29802) - http://www.bohemiancoding.com/sketch -->
    <title>Logo</title>
    <desc>Created with Sketch.</desc>
    <defs>
        <path d="M260,130 C260,201.797267 201.797267,260 130,260 C58.2027333,260 0,201.797267 0,130 C0,58.2027333 58.2027333,0 130,0 C201.797267,0 260,58.2027333 260,130" id="path-1"></path>
    </defs>
    <g id="Epic" stroke="none" stroke-width="1" fill="none" fill-rule="evenodd">
        <g id="Desktop-HD" transform="translate(-470.000000, -145.000000)">
            <g id="Intro">
                <g id="Logo" transform="translate(470.000000, 145.000000)">
                    <mask id="mask-2" fill="white">
                        <use xlink:href="#path-1"></use>
                    </mask>
                    <use id="Fill-1" fill="#FFECB3" xlink:href="#path-1"></use>
                    <path d="M160.52634,49.3856133 C160.52634,44.4924133 156.559607,40.5265467 151.667273,40.5265467 C146.774073,40.5265467 142.80734,44.4924133 142.80734,49.3856133 C142.80734,54.2779467 146.774073,58.24468 151.667273,58.24468 C156.559607,58.24468 160.52634,54.2779467 160.52634,49.3856133 L160.52634,49.3856133 Z M111.798873,40.5265467 C106.907407,40.5265467 102.940673,44.4924133 102.940673,49.3856133 C102.940673,54.2779467 106.907407,58.24468 111.798873,58.24468 C116.692073,58.24468 120.659673,54.2779467 120.659673,49.3856133 C120.659673,44.4924133 116.692073,40.5265467 111.798873,40.5265467 L111.798873,40.5265467 Z M123.933073,91.0003467 L123.933073,70.2003467 L112.27814,70.2003467 C101.006273,70.2003467 91.8664067,61.0336133 91.8664067,50.17688 C91.8664067,39.3210133 100.527873,30.3371467 111.79974,30.3371467 C123.075073,30.3371467 131.733073,38.95528 131.733073,49.81288 C131.733073,38.95528 140.39194,30.3380133 151.666407,30.3380133 C162.940007,30.3380133 171.59974,39.3210133 171.59974,50.1777467 C171.59974,61.03448 162.46074,70.2003467 151.188873,70.2003467 L139.533073,70.2003467 L139.533073,91.0003467 L123.933073,91.0003467 Z" id="Fill-3" fill="#90A4AE" mask="url(#mask-2)"></path>
                    <path d="M225.333333,260 L225.333333,188.5 L225.333333,117 C225.333333,113.483933 224.284667,110.2166 222.4846,107.487467 C220.683667,104.7592 211.094,95.3333333 208.845867,93.8487333 C206.116733,92.0486667 202.8494,91 199.333333,91 L130,91 L60.6666667,91 C55.8800667,91 51.5467333,92.9396 48.4102667,96.0769333 C45.2729333,99.2134 43.3333333,103.546733 43.3333333,108.333333 L43.3333333,184.166667 L43.3333333,260 L47.6666667,260 L52,260 L138.666667,260 L225.333333,260 Z" id="Fill-5" fill="#7986CB" mask="url(#mask-2)"></path>
                    <path d="M216.666667,260 L216.666667,108.333333 C216.666667,98.7601333 208.906533,91 199.333333,91 L60.6666667,91 C51.0934667,91 43.3333333,98.7601333 43.3333333,108.333333 L43.3333333,260 L216.666667,260 Z" id="Fill-7" fill="#82B1FF" mask="url(#mask-2)"></path>
                    <path d="M85.70354,177.90786 C69.8270733,177.90786 56.91114,164.99106 56.91114,149.114593 C56.91114,133.238993 69.8270733,120.322193 85.70354,120.322193 C101.580007,120.322193 114.49594,133.238993 114.49594,149.114593 C114.49594,164.99106 101.580007,177.90786 85.70354,177.90786" id="Fill-9" fill="#FF7043" mask="url(#mask-2)"></path>
                    <path d="M85.70354,115.892573 C67.35534,115.892573 52.4816067,130.767173 52.4816067,149.114507 C52.4816067,167.463573 67.35534,182.337307 85.70354,182.337307 C104.050873,182.337307 118.925473,167.463573 118.925473,149.114507 C118.925473,130.767173 104.050873,115.892573 85.70354,115.892573 M85.70354,124.75164 C99.1368733,124.75164 110.066407,135.681173 110.066407,149.114507 C110.066407,162.548707 99.1368733,173.47824 85.70354,173.47824 C72.2702067,173.47824 61.3406733,162.548707 61.3406733,149.114507 C61.3406733,135.681173 72.2702067,124.75164 85.70354,124.75164" id="Fill-11" fill="#E3F2FD" mask="url(#mask-2)"></path>
                    <path d="M73.95908,137.36918 L97.45008,160.86018 C103.93708,154.37318 103.93708,143.85618 97.45008,137.36918 C90.9639467,130.88218 80.4452133,130.88218 73.95908,137.36918" id="Fill-13" fill="#E3F2FD" mask="url(#mask-2)"></path>
                    <path d="M174.29646,177.90786 C158.42086,177.90786 145.503193,164.99106 145.503193,149.114593 C145.503193,133.238993 158.42086,120.322193 174.29646,120.322193 C190.17206,120.322193 203.089727,133.238993 203.089727,149.114593 C203.089727,164.99106 190.17206,177.90786 174.29646,177.90786" id="Fill-15" fill="#FF7043" mask="url(#mask-2)"></path>
                    <path d="M174.29646,115.892573 C155.94826,115.892573 141.074527,130.767173 141.074527,149.114507 C141.074527,167.463573 155.94826,182.337307 174.29646,182.337307 C192.643793,182.337307 207.518393,167.463573 207.518393,149.114507 C207.518393,130.767173 192.643793,115.892573 174.29646,115.892573 M174.29646,124.75164 C187.73066,124.75164 198.659327,135.681173 198.659327,149.114507 C198.659327,162.548707 187.73066,173.47824 174.29646,173.47824 C160.86226,173.47824 149.933593,162.548707 149.933593,149.114507 C149.933593,135.681173 160.86226,124.75164 174.29646,124.75164" id="Fill-17" fill="#E3F2FD" mask="url(#mask-2)"></path>
                    <path d="M162.551653,137.36918 L186.042653,160.86018 C192.529653,154.37318 192.529653,143.85618 186.042653,137.36918 C179.55652,130.88218 169.037787,130.88218 162.551653,137.36918" id="Fill-19" fill="#E3F2FD" mask="url(#mask-2)"></path>
                    <polygon id="Fill-21" fill="#E3F2FD" mask="url(#mask-2)" points="130 173.333333 108.333333 208 151.666667 208"></polygon>
                    <path d="M50.0387333,232.507006 C72.0918369,249.734167 99.8470303,260 130,260 C160.153365,260 187.90889,249.733898 209.962133,232.506329 L209.962133,218.359267 L50.0387333,218.359267 L50.0387333,232.507006 L50.0387333,232.507006 Z" id="Clip-24" mask="url(#mask-2)"></path>
                    <path d="M130,264.333333 C120.3046,264.333333 110.612667,263.355733 101.1946,261.428267 C92.0079333,259.548467 82.9712,256.743933 74.334,253.090933 C65.8614667,249.508133 57.6870667,245.0708 50.0387333,239.9046 L64.5926667,218.359267 C70.85,222.586 77.5354667,226.2156 84.4627333,229.144067 C91.5182667,232.128867 98.9014,234.420333 106.405867,235.956933 C121.8204,239.109867 138.178733,239.109867 153.594133,235.956933 C161.0986,234.420333 168.480867,232.128867 175.538133,229.144067 C182.4654,226.2156 189.150867,222.586 195.4082,218.359267 L209.962133,239.9046 C202.312933,245.0708 194.1394,249.508133 185.665133,253.090933 C177.0288,256.743933 167.992067,259.548467 158.8054,261.428267 C149.386467,263.355733 139.6954,264.333333 130,264.333333" id="Fill-23" fill="#7986CB" mask="url(#mask-2)"></path>
                    <path d="M58.7027133,240.290093 C56.5941133,239.023027 54.4950467,237.684893 52.46358,236.31296 L62.1685133,221.95056 C63.94518,223.15176 65.7825133,224.322627 67.6285133,225.431093 L58.7027133,240.290093 Z M200.508447,240.760693 L191.68058,225.84276 C193.76578,224.608627 195.836247,223.29996 197.833913,221.949693 L207.536247,236.313827 C205.253447,237.85476 202.88918,239.351493 200.508447,240.760693 L200.508447,240.760693 Z M72.6101133,247.601293 C70.09678,246.457293 67.5843133,245.221427 65.1429133,243.926627 L73.26098,228.612627 C75.39558,229.744493 77.5917133,230.82436 79.7887133,231.824493 L72.6101133,247.601293 Z M186.549913,247.980893 L179.479647,232.15556 C181.679247,231.17276 183.881447,230.10676 186.027313,228.987893 L194.04398,244.355627 C191.590447,245.63656 189.068447,246.85596 186.549913,247.980893 L186.549913,247.980893 Z M87.2585133,253.28576 C84.6342467,252.437293 81.9978467,251.495227 79.4221133,250.486427 L85.7444467,234.346493 C87.9969133,235.22876 90.3022467,236.052093 92.5963133,236.795693 L87.2585133,253.28576 Z M171.867713,253.56396 L166.639113,237.03836 C168.944447,236.308627 171.25498,235.500893 173.507447,234.63596 L179.721447,250.816627 C177.14658,251.805493 174.504113,252.730227 171.867713,253.56396 L171.867713,253.56396 Z M102.44078,257.260293 L102.067247,257.184027 C99.4759133,256.654493 96.8811133,256.045227 94.3513133,255.371827 L98.8051133,238.620893 C101.011647,239.207627 103.277113,239.738893 105.53738,240.201693 L105.90658,240.277093 L102.44078,257.260293 Z M156.63258,257.444027 L153.334913,240.427027 C153.711047,240.354227 154.085447,240.278827 154.45898,240.20256 C156.457513,239.792627 158.46558,239.32896 160.42598,238.823693 L164.754113,255.606693 C162.515513,256.18476 160.22318,256.714293 157.941247,257.182293 C157.504447,257.272427 157.06938,257.359093 156.63258,257.444027 L156.63258,257.444027 Z M118.011313,259.488493 C115.270047,259.253627 112.491513,258.932093 109.753713,258.53256 L112.25578,241.38036 C114.656447,241.730493 117.090913,242.01216 119.492447,242.218427 L118.011313,259.488493 Z M141.07678,259.563893 L139.707447,242.28516 C142.12718,242.09276 144.562513,241.826693 146.94498,241.49476 L149.34478,258.65996 C146.621713,259.041293 143.839713,259.344627 141.07678,259.563893 L141.07678,259.563893 Z M129.999913,259.999827 C128.463313,259.999827 126.911113,259.974693 125.38578,259.92356 L125.95778,242.600627 C128.366247,242.68036 130.824113,242.687293 133.242113,242.624027 L133.699713,259.951293 C132.47078,259.984227 131.236647,259.999827 129.999913,259.999827 L129.999913,259.999827 Z" id="Fill-26" fill="#FFFFFF" mask="url(#mask-2)"></path>
                </g>
            </g>
        </g>
    </g>
</svg>